<svg xmlns="http://www.w3.org/2000/svg"  viewBox="0 0 64 64" width="96px" height="96px"><path d="M 32 9 C 25.519 9 22.662109 12.755859 22.662109 12.755859 C 22.662109 12.755859 13 13.514 13 27 L 13 32 C 13 32 12 33.499484 12 35.646484 C 12 38.521484 14.338 41.181 16 42 C 17.896 49.908 27 55 32 55 C 37 55 46.104 49.908 48 42 C 49.662 41.181 52 38.875 52 36 C 52 33.853 51 32 51 32 L 51 27 C 51 15.577 43.509 9 32 9 z M 32 13 C 41.533 13 47 18.103 47 27 L 47 31 L 46.341797 31 L 44.341797 27 C 30.122797 27.527 25.53125 20.603516 25.53125 20.603516 C 20.81125 21.941516 18.272516 26.963 17.353516 31 L 17.353516 31.001953 L 17 31.001953 L 17 27 C 17 17.226 24.984375 16.664062 24.984375 16.664062 C 24.984375 16.664062 25.939 13 32 13 z M 24.589844 25.566406 C 28.391844 29.322406 33.351281 30.858234 41.863281 30.990234 L 43.869141 35 L 47.896484 35 C 47.95572 35.30424 48 35.630822 48 36 C 48 38.248 44.548828 39.242188 44.548828 39.242188 C 44.548828 45.470187 35.417 51 32 51 C 28.583 51 19.451172 45.865188 19.451172 39.242188 C 19.451172 39.242188 16 37.852484 16 35.646484 C 16 35.413239 16.026152 35.202538 16.0625 35.001953 L 20.486328 35.001953 C 20.531328 31.760953 23.073844 26.924406 24.589844 25.566406 z M 26.5 36 C 25.672 36 25 36.672 25 37.5 C 25 38.328 25.672 39 26.5 39 C 27.328 39 28 38.328 28 37.5 C 28 36.672 27.328 36 26.5 36 z M 37.5 36 C 36.672 36 36 36.672 36 37.5 C 36 38.328 36.672 39 37.5 39 C 38.328 39 39 38.328 39 37.5 C 39 36.672 38.328 36 37.5 36 z M 29.5 44 C 28.948 44 28.5 44.448 28.5 45 C 28.5 45.552 28.948 46 29.5 46 L 34.5 46 C 35.052 46 35.5 45.552 35.5 45 C 35.5 44.448 35.052 44 34.5 44 L 29.5 44 z"/></svg>